<?xml version="1.0" encoding="utf-8"?>
<!-- Generator: Adobe Illustrator 21.1.0, SVG Export Plug-In . SVG Version: 6.00 Build 0)  -->
<svg version="1.1" id="Layer_1" xmlns="http://www.w3.org/2000/svg" xmlns:xlink="http://www.w3.org/1999/xlink" x="0px" y="0px"
	 viewBox="0 0 48 48" style="enable-background:new 0 0 48 48;" xml:space="preserve">
<style type="text/css">
	.st0{fill:#DDDDDD;}
</style>
<g>
	<path class="st0" d="M34,14c0,3.2,0,6.3,0,9.5c0,0,0,0,0,0.1c-3.6,0-7.2,0.1-10.8,0.1c0-2.7,0-5.3,0-8c0.1,0,0.2,0,0.3,0
		c0.4-0.1,0.8-0.1,1.3-0.2c0.4-0.1,0.8-0.1,1.2-0.2c0.4-0.1,0.8-0.1,1.3-0.2c0.4-0.1,0.8-0.1,1.3-0.2c0.4-0.1,0.8-0.1,1.2-0.2
		c0.4-0.1,0.8-0.1,1.2-0.2c0.4-0.1,0.8-0.1,1.2-0.2c0.4-0.1,0.7-0.1,1.1-0.2C33.4,14,33.7,14,34,14C34,14,34,14,34,14
		C34,14,34,14,34,14z"/>
	<path class="st0" d="M14,16.8c0.1,0,0.3,0,0.4-0.1c0.4-0.1,0.8-0.1,1.1-0.2c0.4,0,0.7-0.1,1.1-0.1c0.3,0,0.7-0.1,1-0.1
		c0.3,0,0.7-0.1,1-0.1c0.4-0.1,0.8-0.1,1.2-0.2c0.4-0.1,0.7-0.1,1.1-0.2c0.4-0.1,0.8-0.1,1.1-0.2c0,0,0,0,0.1,0c0,2.6,0,5.3,0,7.9
		c-2.7,0-5.4,0-8.2,0c0,0,0,0,0-0.1c0-0.7,0-1.4,0-2.1c0,0,0-0.1,0-0.1C14,19.8,14,18.3,14,16.8z"/>
	<path class="st0" d="M23.2,32.5c0-2.7,0-5.3,0-8c3.6,0,7.2,0,10.9,0c0,3.2,0,6.3,0,9.5C30.4,33.5,26.8,33,23.2,32.5z"/>
	<path class="st0" d="M22.2,24.5c0,2.6,0,5.3,0,7.9c-2.7-0.4-5.4-0.7-8.2-1.1c0-2.3,0-4.5,0-6.8C16.7,24.5,19.4,24.5,22.2,24.5z"/>
</g>
</svg>
