<?xml version="1.0" encoding="utf-8"?>
<!-- Generator: Adobe Illustrator 21.1.0, SVG Export Plug-In . SVG Version: 6.00 Build 0)  -->
<svg version="1.1" id="Layer_1" xmlns="http://www.w3.org/2000/svg" xmlns:xlink="http://www.w3.org/1999/xlink" x="0px" y="0px"
	 viewBox="0 0 48 48" style="enable-background:new 0 0 48 48;" xml:space="preserve">
<style type="text/css">
	.st0{fill:none;}
	.st1{fill:#DDDDDD;}
</style>
<path class="st0" d="M16,14h20v20H16V14z"/>
<path class="st1" d="M30.7,21.2v-3.9h-3.9L24,14.6l-2.8,2.8h-3.9v3.9L14.6,24l2.8,2.8v3.9h3.9l2.8,2.8l2.8-2.8h3.9v-3.9l2.8-2.8
	L30.7,21.2z M24,29c-0.7,0-1.4-0.2-2.1-0.5c1.7-0.8,2.9-2.5,2.9-4.5s-1.2-3.8-2.9-4.5c0.6-0.3,1.3-0.5,2.1-0.5c2.8,0,5,2.2,5,5
	S26.8,29,24,29z"/>
</svg>
